<svg width="203" height="52" viewBox="0 0 203 52" fill="none" xmlns="http://www.w3.org/2000/svg">
<path d="M34.4683 0.397461C38.1368 -0.131951 41.8623 -0.131938 45.5308 0.397461C45.8245 0.439857 46.12 0.486738 46.7095 0.581055C46.9058 0.612468 47.0043 0.628831 47.0923 0.648438C48.2199 0.899804 49.1008 1.78051 49.3521 2.9082C49.3717 2.99621 49.387 3.09457 49.4185 3.29102C49.5127 3.88028 49.5597 4.17508 49.6021 4.46875C50.1315 8.13741 50.1315 11.8636 49.6021 15.5322C49.5597 15.8259 49.5127 16.1207 49.4185 16.71C49.387 16.9064 49.3716 17.0048 49.3521 17.0928C49.1008 18.2205 48.2199 19.1012 47.0923 19.3525C47.0043 19.3721 46.9058 19.3885 46.7095 19.4199C46.12 19.5142 45.8245 19.5611 45.5308 19.6035C43.6968 19.8682 41.8487 20.0009 40.0005 20.001C28.9553 20.0012 20.002 28.9549 20.0015 40H20.0005C20.0005 41.8488 19.8678 43.6977 19.603 45.5322C19.5606 45.8259 19.5137 46.1207 19.4194 46.71C19.388 46.9065 19.3717 47.0047 19.3521 47.0928C19.1008 48.2206 18.2201 49.1013 17.0923 49.3525C17.0043 49.3721 16.906 49.3885 16.7095 49.4199C16.1202 49.5142 15.8254 49.5611 15.5317 49.6035C11.8631 50.133 8.1369 50.133 4.46826 49.6035C4.1746 49.5611 3.87978 49.5142 3.29053 49.4199C3.09397 49.3885 2.99577 49.3722 2.90771 49.3525C1.77992 49.1013 0.899209 48.2206 0.647949 47.0928C0.628347 47.0048 0.612002 46.9064 0.580566 46.71C0.486282 46.1207 0.439359 45.8259 0.396973 45.5322C-0.132471 41.8636 -0.132471 38.1374 0.396973 34.4688C0.439358 34.1751 0.486282 33.8803 0.580566 33.291C0.612009 33.0945 0.628341 32.9962 0.647949 32.9082C0.89921 31.7804 1.77992 30.8997 2.90771 30.6484C2.99577 30.6288 3.09396 30.6125 3.29053 30.5811C3.87979 30.4868 4.1746 30.4398 4.46826 30.3975C6.30272 30.1327 8.15178 30 10.0005 30V29.999C20.8729 29.9985 29.7195 21.3231 29.9937 10.5166L29.9995 10.0488C29.9972 8.18414 30.1299 6.31906 30.397 4.46875C30.4394 4.17508 30.4863 3.8803 30.5806 3.29102C30.612 3.09458 30.6274 2.99621 30.647 2.9082C30.8982 1.78055 31.7792 0.899841 32.9067 0.648438C32.9948 0.628819 33.0939 0.612509 33.2905 0.581055C33.8797 0.486785 34.1746 0.439847 34.4683 0.397461Z" fill="currentColor"/>
<path d="M45.5312 30.3975C41.8626 29.868 38.1364 29.868 34.4678 30.3975C34.1741 30.4398 33.8792 30.4868 33.29 30.5811C33.0935 30.6125 32.9953 30.6288 32.9072 30.6484C31.7795 30.8997 30.8987 31.7804 30.6475 32.9082C30.6279 32.9962 30.6125 33.0947 30.5811 33.291C30.4868 33.8804 30.4389 34.175 30.3965 34.4688C29.867 38.1374 29.867 41.8636 30.3965 45.5322C30.4389 45.8259 30.4868 46.1207 30.5811 46.71C30.6125 46.9064 30.6278 47.0047 30.6475 47.0928C30.8987 48.2206 31.7794 49.1013 32.9072 49.3525C32.9953 49.3722 33.0936 49.3875 33.29 49.4189C33.8793 49.5132 34.1741 49.5611 34.4678 49.6035C38.1364 50.133 41.8626 50.133 45.5312 49.6035C45.825 49.5611 46.1196 49.5132 46.709 49.4189C46.9054 49.3875 47.0038 49.3721 47.0918 49.3525C48.2196 49.1013 49.1003 48.2205 49.3516 47.0928C49.3712 47.0047 49.3875 46.9065 49.4189 46.71C49.5132 46.1208 49.5602 45.8259 49.6025 45.5322C50.132 41.8636 50.132 38.1374 49.6025 34.4688C49.5602 34.175 49.5132 33.8803 49.4189 33.291C49.3875 33.0946 49.3712 32.9962 49.3516 32.9082C49.1003 31.7804 48.2196 30.8997 47.0918 30.6484C47.0038 30.6288 46.9055 30.6125 46.709 30.5811C46.1197 30.4868 45.8249 30.4398 45.5312 30.3975ZM15.5312 0.397461C11.8627 -0.131939 8.13726 -0.131962 4.46875 0.397461C4.17504 0.439849 3.88026 0.486776 3.29102 0.581055C3.09469 0.612466 2.99617 0.628856 2.9082 0.648438C1.7804 0.899702 0.898724 1.78039 0.647461 2.9082C0.627888 2.99616 0.612457 3.09474 0.581055 3.29102C0.486771 3.8803 0.43985 4.17504 0.397461 4.46875C-0.131985 8.13741 -0.131981 11.8636 0.397461 15.5322C0.439842 15.8259 0.486786 16.1208 0.581055 16.71C0.612484 16.9064 0.627853 17.0048 0.647461 17.0928C0.898724 18.2206 1.7804 19.1013 2.9082 19.3525C2.99615 19.3721 3.09475 19.3875 3.29102 19.4189C3.88032 19.5132 4.17502 19.5611 4.46875 19.6035C8.13723 20.1329 11.8628 20.1329 15.5312 19.6035C15.825 19.5611 16.1205 19.5133 16.71 19.4189C16.9062 19.3875 17.0048 19.3721 17.0928 19.3525C18.2205 19.1012 19.1013 18.2205 19.3525 17.0928C19.3722 17.0047 19.3875 16.9064 19.4189 16.71C19.5132 16.1207 19.5611 15.8259 19.6035 15.5322C20.133 11.8636 20.133 8.13741 19.6035 4.46875C19.5611 4.17501 19.5132 3.88038 19.4189 3.29102C19.3875 3.0947 19.3721 2.99617 19.3525 2.9082C19.1013 1.7805 18.2204 0.8998 17.0928 0.648438C17.0048 0.62883 16.9063 0.612471 16.71 0.581055C16.1205 0.486738 15.825 0.439857 15.5312 0.397461Z" fill="#ffffff"/>
<path d="M184.034 10.4023C186.936 10.4024 189.53 10.7815 191.814 11.5391C194.11 12.2966 196.051 13.3918 197.636 14.8252C199.233 16.2588 200.451 18.0132 201.29 20.0879C202.129 22.1625 202.549 24.5113 202.549 27.1338V50.002H193.772V39.8965C193.318 41.6214 192.63 43.1775 191.709 44.5645C190.8 45.9396 189.687 47.1108 188.37 48.0781C187.053 49.0338 185.555 49.7684 183.877 50.2812C182.21 50.7941 180.398 51.0508 178.439 51.0508C176.4 51.0508 174.541 50.7704 172.862 50.2109C171.196 49.6631 169.768 48.8881 168.579 47.8857C167.39 46.8834 166.469 45.6769 165.816 44.2666C165.176 42.8448 164.855 41.2716 164.855 39.5469C164.855 37.752 165.211 36.1436 165.922 34.7217C166.633 33.2997 167.653 32.0932 168.981 31.1025C170.322 30.1119 171.953 29.3536 173.876 28.8291C175.799 28.293 177.967 28.0254 180.38 28.0254H193.772V27.1338C193.772 25.6769 193.544 24.3716 193.09 23.2178C192.635 22.0522 191.977 21.061 191.114 20.2451C190.264 19.4295 189.226 18.8062 188.003 18.375C186.779 17.9438 185.398 17.7276 183.859 17.7275C182.298 17.7275 180.939 17.9082 179.785 18.2695C178.643 18.6192 177.699 19.1208 176.953 19.7734C176.207 20.4261 175.653 21.2131 175.292 22.1338C174.931 23.0543 174.751 24.0857 174.751 25.2275H165.991C165.991 22.955 166.411 20.9039 167.25 19.0742C168.089 17.2444 169.284 15.6883 170.834 14.4062C172.396 13.1125 174.29 12.1213 176.517 11.4336C178.754 10.746 181.26 10.4023 184.034 10.4023ZM108.883 50.0029H99.0928L95.1582 38.2363H73.584L69.5811 50.0029H60L77.9375 0.000976562H91.1895L108.883 50.0029ZM121.174 50.0029H112.397V0.000976562H121.174V50.0029ZM144.813 44.5127L155.513 11.4521H164.481L151.09 50.002H138.327L125.057 11.4521H134.235L144.813 44.5127ZM180.887 34.1797C178.486 34.1797 176.668 34.5816 175.433 35.3857C174.209 36.19 173.597 37.3787 173.597 38.9521C173.597 40.6072 174.267 41.8779 175.607 42.7637C176.959 43.6377 178.906 44.0752 181.446 44.0752C183.241 44.0752 184.891 43.859 186.395 43.4277C187.91 42.9848 189.209 42.3727 190.293 41.5918C191.388 40.8109 192.24 39.8847 192.846 38.8125C193.463 37.7285 193.772 36.5507 193.772 35.2803V34.1797H180.887ZM76.2422 30.4043H92.5361L84.4414 6.24219L76.2422 30.4043Z" fill="#ffffff"/>
</svg>
